<svg width="283" height="36" viewBox="0 0 283 36" fill="none" xmlns="http://www.w3.org/2000/svg">
<path d="M25.496 28.856C24.668 29.216 23.588 28.928 23.084 27.956L20.6 22.412C18.26 21.836 15.92 21.8 13.652 22.304C11.816 22.664 10.016 23.348 8.252 24.428C6.452 25.544 4.58 27.02 3.212 28.352C2.528 29.036 1.628 29.252 0.872 28.784C0.08 28.28 0.188 27.272 0.548 26.444L11.924 1.748C12.248 1.1 12.86 0.704 13.58 0.704C14.264 0.704 14.948 1.136 15.2 1.748L26.396 26.444C26.792 27.38 26.396 28.424 25.496 28.856ZM13.544 6.824L6.632 21.548C8.54 20.468 11.06 19.496 13.076 19.1C15.02 18.668 17 18.596 18.98 18.776L13.544 6.824ZM47.9777 27.956C49.0937 29 50.2097 30.62 50.8577 33.068C51.1457 34.04 50.5697 35.012 49.5977 35.264C49.3097 35.372 48.9857 35.372 48.6977 35.3C48.0857 35.12 47.5817 34.652 47.4017 34.004C46.8977 32.204 46.0697 30.872 44.9177 30.116C44.0897 29.54 43.3697 29.468 43.3337 29.468C43.3697 29.468 43.3697 29.468 43.3697 29.468V29.396C41.6057 29.612 39.7337 29.504 37.9337 29.072C35.9897 28.604 34.2257 27.74 32.6057 26.552C31.0937 25.4 29.8337 23.996 28.8257 22.34C27.8177 20.684 27.1697 18.92 26.8817 17.048C26.5577 15.104 26.6297 13.16 27.1337 11.252C27.6017 9.344 28.4297 7.58 29.6177 6.032C30.7697 4.52 32.2097 3.26 33.8657 2.288C35.5217 1.316 37.3217 0.667998 39.2297 0.379999C41.1737 0.0559993 43.1537 0.163998 45.0977 0.631998C48.9137 1.604 52.1177 3.98 54.0977 7.364C55.0337 8.984 55.6817 10.748 55.9337 12.62C56.2217 14.528 56.1497 16.472 55.6817 18.38C55.1777 20.252 54.3497 22.016 53.1977 23.6C52.0817 25.112 50.6777 26.372 49.0577 27.38C48.7337 27.596 48.3737 27.776 47.9777 27.956ZM31.9217 20.468C33.4697 23.06 35.9177 24.86 38.7977 25.58C41.6777 26.3 44.6657 25.832 47.1857 24.284C48.4097 23.564 49.4537 22.592 50.3177 21.44C51.1817 20.252 51.8297 18.92 52.1897 17.516C52.8737 14.636 52.4777 11.684 51.0017 9.164C49.5257 6.644 47.1137 4.844 44.2337 4.124C42.7577 3.764 41.2457 3.692 39.7697 3.908C38.3297 4.16 36.9617 4.628 35.7017 5.384C34.4417 6.104 33.3617 7.076 32.4977 8.228C31.5977 9.38 30.9497 10.712 30.6257 12.116C30.2657 13.556 30.1937 14.996 30.4457 16.472C30.6617 17.876 31.1657 19.244 31.9217 20.468ZM70.9263 29.432C68.2983 29.432 66.0303 28.892 64.1943 27.812C62.6103 26.912 61.3863 25.652 60.4863 24.032C59.0103 21.296 59.0103 18.452 59.0103 17.516V2.504C59.0103 1.532 59.8383 0.704 60.8103 0.704C61.8183 0.704 62.6103 1.532 62.6103 2.504V17.516C62.6103 18.236 62.6103 20.396 63.6543 22.304C64.2303 23.348 64.9863 24.14 65.9943 24.716C67.2543 25.436 68.9103 25.832 70.9263 25.832C72.9423 25.832 74.5983 25.436 75.8583 24.716C76.8303 24.14 77.6223 23.348 78.1623 22.34C79.2063 20.396 79.2063 18.236 79.2063 17.516V2.504C79.2063 1.532 80.0343 0.704 81.0063 0.704C82.0143 0.704 82.8063 1.532 82.8063 2.504V17.516C82.8063 18.452 82.8063 21.332 81.3303 24.032C79.9983 26.516 77.1183 29.432 70.9263 29.432ZM109.66 28.856C108.832 29.216 107.752 28.928 107.248 27.956L104.764 22.412C102.424 21.836 100.084 21.8 97.8161 22.304C95.9801 22.664 94.1801 23.348 92.4161 24.428C90.6161 25.544 88.7441 27.02 87.3761 28.352C86.6921 29.036 85.7921 29.252 85.0361 28.784C84.2441 28.28 84.3521 27.272 84.7121 26.444L96.0881 1.748C96.4121 1.1 97.0241 0.704 97.7441 0.704C98.4281 0.704 99.1121 1.136 99.3641 1.748L110.56 26.444C110.956 27.38 110.56 28.424 109.66 28.856ZM97.7081 6.824L90.7961 21.548C92.7041 20.468 95.2241 19.496 97.2401 19.1C99.1841 18.668 101.164 18.596 103.144 18.776L97.7081 6.824ZM119.412 29.072C118.656 29.072 118.008 28.64 117.72 27.956L107.424 3.044C107.064 2.144 107.496 1.1 108.396 0.704C109.332 0.307998 110.376 0.775999 110.772 1.676L119.412 22.556L128.052 1.676C128.412 0.775999 129.492 0.307998 130.392 0.704C131.328 1.1 131.76 2.144 131.364 3.044L121.068 27.956C120.78 28.64 120.132 29.072 119.412 29.072ZM153.393 25.4C154.401 25.4 155.193 26.192 155.193 27.2C155.193 28.208 154.401 29 153.393 29H136.185C135.213 29 134.385 28.208 134.385 27.2V2.504C134.385 1.496 135.213 0.704 136.185 0.704H153.033C154.041 0.704 154.833 1.496 154.833 2.504C154.833 3.512 154.041 4.304 153.033 4.304H137.985V12.98H151.305C152.313 12.98 153.105 13.808 153.105 14.78C153.105 15.788 152.313 16.58 151.305 16.58H137.985V25.4H153.393ZM181.157 28.856C180.437 29.072 179.537 28.964 179.069 28.388L161.681 7.472V27.2C161.681 28.208 160.889 29 159.881 29C158.873 29 158.081 28.208 158.081 27.2V2.504C158.081 1.748 158.549 1.064 159.269 0.811998C159.989 0.559999 160.781 0.775999 161.249 1.352L178.673 22.232V2.468C178.673 1.46 179.465 0.667998 180.473 0.667998C181.445 0.667998 182.273 1.46 182.273 2.468V27.236C182.273 27.992 181.913 28.64 181.157 28.856ZM206.355 0.704C207.363 0.704 208.155 1.496 208.155 2.504C208.155 3.512 207.363 4.304 206.355 4.304H198.471V27.2C198.471 28.208 197.643 29 196.671 29C195.663 29 194.871 28.208 194.871 27.2V4.304H186.951C185.943 4.304 185.151 3.512 185.151 2.504C185.151 1.496 185.943 0.704 186.951 0.704H206.355ZM222.942 29.432C220.314 29.432 218.046 28.892 216.21 27.812C214.626 26.912 213.402 25.652 212.502 24.032C211.026 21.296 211.026 18.452 211.026 17.516V2.504C211.026 1.532 211.854 0.704 212.826 0.704C213.834 0.704 214.626 1.532 214.626 2.504V17.516C214.626 18.236 214.626 20.396 215.67 22.304C216.246 23.348 217.002 24.14 218.01 24.716C219.27 25.436 220.926 25.832 222.942 25.832C224.958 25.832 226.614 25.436 227.874 24.716C228.846 24.14 229.638 23.348 230.178 22.34C231.222 20.396 231.222 18.236 231.222 17.516V2.504C231.222 1.532 232.05 0.704 233.022 0.704C234.03 0.704 234.822 1.532 234.822 2.504V17.516C234.822 18.452 234.822 21.332 233.346 24.032C232.014 26.516 229.134 29.432 222.942 29.432ZM257.006 28.964C256.178 28.964 255.422 28.352 255.242 27.488C254.81 25.292 254.126 23.528 253.19 22.196C252.506 21.188 251.642 20.468 250.67 20C249.914 19.604 249.158 19.46 248.582 19.424C248.114 19.424 247.61 19.46 247.106 19.46C246.206 19.46 245.414 18.74 245.342 17.804C245.234 16.904 245.882 16.04 246.782 15.896C246.926 15.86 247.61 15.716 248.618 15.788C250.49 15.68 251.966 15.284 253.046 14.672C254.63 13.772 255.386 12.368 255.386 10.244C255.386 8.804 255.098 7.616 254.594 6.68C254.198 5.996 253.622 5.456 252.938 5.024C251.642 4.304 250.31 4.268 250.202 4.268H241.31V27.164C241.31 28.136 240.518 28.964 239.51 28.964C238.538 28.964 237.71 28.136 237.71 27.164V2.468C237.71 1.46 238.538 0.667998 239.51 0.667998H250.202C250.346 0.667998 251.21 0.667998 252.326 0.955998C253.91 1.352 255.314 2.108 256.394 3.188C257.186 3.98 257.834 4.952 258.266 6.068C258.734 7.292 258.986 8.696 258.986 10.244C258.986 13.628 257.546 16.256 254.846 17.804C254.666 17.912 254.486 17.984 254.27 18.092C254.918 18.632 255.494 19.244 256.034 19.964C257.33 21.728 258.23 24.032 258.77 26.804C258.95 27.776 258.338 28.748 257.366 28.928C257.222 28.928 257.114 28.964 257.006 28.964ZM280.87 25.4C281.878 25.4 282.67 26.192 282.67 27.2C282.67 28.208 281.878 29 280.87 29H263.662C262.69 29 261.862 28.208 261.862 27.2V2.504C261.862 1.496 262.69 0.704 263.662 0.704H280.51C281.518 0.704 282.31 1.496 282.31 2.504C282.31 3.512 281.518 4.304 280.51 4.304H265.462V12.98H278.782C279.79 12.98 280.582 13.808 280.582 14.78C280.582 15.788 279.79 16.58 278.782 16.58H265.462V25.4H280.87Z" fill="url(#paint0_linear_8_12)"/>
<defs>
<linearGradient id="paint0_linear_8_12" x1="-1" y1="-8" x2="135.917" y2="157.979" gradientUnits="userSpaceOnUse">
<stop stop-color="#3C5A9F"/>
<stop offset="1" stop-color="#3B82F6"/>
</linearGradient>
</defs>
</svg>
