<svg width="139" height="14" viewBox="0 0 139 14" fill="none" xmlns="http://www.w3.org/2000/svg">
<path d="M0 13.9065L5.72148 0.205608L11.443 13.9065H9.3572L8.93622 12.8224H2.52587L2.08576 13.9065H0ZM3.21474 11.0841H8.22821L5.72148 4.80374L3.21474 11.0841Z" fill="white"/>
<path d="M19.745 0.2243C20.7145 0.2243 21.6267 0.404985 22.4814 0.766355C23.3361 1.12773 24.076 1.61994 24.7011 2.24299C25.3389 2.85358 25.8428 3.57632 26.2128 4.41122C26.5827 5.24611 26.7677 6.13707 26.7677 7.08411C26.7677 8.05607 26.5764 8.9595 26.1936 9.79439C25.8109 10.6293 25.2879 11.3645 24.6245 12H26.7677V13.9252H19.745C18.7755 13.9252 17.8634 13.7445 17.0087 13.3832C16.1667 13.0218 15.4268 12.5358 14.789 11.9252C14.1639 11.3022 13.6663 10.5794 13.2964 9.75701C12.9264 8.92212 12.7415 8.03115 12.7415 7.08411C12.7415 6.13707 12.9264 5.24611 13.2964 4.41122C13.6663 3.57632 14.1639 2.85358 14.789 2.24299C15.4268 1.61994 16.1667 1.12773 17.0087 0.766355C17.8634 0.404985 18.7755 0.2243 19.745 0.2243ZM19.8024 12C20.4913 12 21.1355 11.8692 21.7351 11.6075C22.3474 11.3458 22.8768 10.9907 23.3233 10.5421C23.7826 10.0935 24.1398 9.57632 24.3949 8.99065C24.6628 8.39252 24.7968 7.75701 24.7968 7.08411C24.7968 6.39875 24.6628 5.75701 24.3949 5.15888C24.1398 4.56075 23.7826 4.03738 23.3233 3.58879C22.8641 3.14019 22.3283 2.79128 21.716 2.54206C21.1036 2.28037 20.4467 2.14953 19.745 2.14953C19.0561 2.14953 18.4055 2.28037 17.7932 2.54206C17.1809 2.79128 16.6451 3.14019 16.1858 3.58879C15.7266 4.03738 15.363 4.56075 15.0951 5.15888C14.84 5.75701 14.7124 6.39875 14.7124 7.08411C14.7124 7.75701 14.84 8.39252 15.0951 8.99065C15.363 9.58879 15.7266 10.1121 16.1858 10.5607C16.6451 11.0093 17.1809 11.3645 17.7932 11.6262C18.4055 11.8754 19.0561 12 19.745 12H19.8024Z" fill="white"/>
<path d="M37.2276 0.2243H39.2368V9.38318C39.2368 10.0187 39.1092 10.6106 38.8541 11.1589C38.6117 11.7072 38.2736 12.1869 37.8399 12.5981C37.4062 12.9969 36.9023 13.3146 36.3282 13.5514C35.7542 13.7882 35.1354 13.9065 34.4721 13.9065C33.8215 13.9065 33.2092 13.7882 32.6351 13.5514C32.0738 13.3146 31.5763 12.9969 31.1425 12.5981C30.7216 12.1869 30.3899 11.7072 30.1475 11.1589C29.9051 10.6106 29.7839 10.0187 29.7839 9.38318V0.2243H31.7931V9.38318C31.7931 9.74455 31.8633 10.0872 32.0036 10.4112C32.144 10.7227 32.3353 11.0031 32.5777 11.2523C32.8201 11.4891 33.1071 11.676 33.4388 11.8131C33.7705 11.9502 34.1213 12.0187 34.4912 12.0187C34.8739 12.0187 35.2311 11.9502 35.5628 11.8131C35.8945 11.676 36.1815 11.4891 36.4239 11.2523C36.679 11.0031 36.8768 10.7227 37.0171 10.4112C37.1574 10.0872 37.2276 9.74455 37.2276 9.38318V0.2243Z" fill="white"/>
<path d="M42.2668 13.9065L47.9882 0.205608L53.7097 13.9065H51.624L51.203 12.8224H44.7926L44.3525 13.9065H42.2668ZM45.4815 11.0841H50.495L47.9882 4.80374L45.4815 11.0841Z" fill="white"/>
<path d="M59.3711 8.84112L62.9494 0.242991H65.0734L59.3711 14L53.6688 0.242991H55.7928L59.3711 8.84112Z" fill="white"/>
<path d="M70.1234 8.6729V11.9252H76.3615V13.8879H68.095V0.242991H76.2276V2.14953H70.1234V6.80374H75.6152V8.6729H70.1234Z" fill="white"/>
<path d="M81.3146 5.30841V13.9626H79.3819V0L88.4521 10.5981V0.242991H90.3848V13.9626H88.5095L81.3146 5.30841Z" fill="white"/>
<path d="M93.4158 2.13084V0.2243H102.371V2.13084H98.9076V13.9065H96.8793V2.13084H93.4158Z" fill="white"/>
<path d="M112.838 0.2243H114.847V9.38318C114.847 10.0187 114.719 10.6106 114.464 11.1589C114.222 11.7072 113.884 12.1869 113.45 12.5981C113.016 12.9969 112.512 13.3146 111.938 13.5514C111.364 13.7882 110.746 13.9065 110.082 13.9065C109.432 13.9065 108.819 13.7882 108.245 13.5514C107.684 13.3146 107.186 12.9969 106.753 12.5981C106.332 12.1869 106 11.7072 105.758 11.1589C105.515 10.6106 105.394 10.0187 105.394 9.38318V0.2243H107.403V9.38318C107.403 9.74455 107.473 10.0872 107.614 10.4112C107.754 10.7227 107.945 11.0031 108.188 11.2523C108.43 11.4891 108.717 11.676 109.049 11.8131C109.381 11.9502 109.731 12.0187 110.101 12.0187C110.484 12.0187 110.841 11.9502 111.173 11.8131C111.505 11.676 111.792 11.4891 112.034 11.2523C112.289 11.0031 112.487 10.7227 112.627 10.4112C112.768 10.0872 112.838 9.74455 112.838 9.38318V0.2243Z" fill="white"/>
<path d="M127.521 6.42991C127.343 6.99065 127.075 7.49533 126.717 7.94393C126.373 8.39252 125.946 8.77259 125.435 9.08411C125.41 9.10903 125.378 9.12773 125.34 9.14019C125.301 9.15265 125.27 9.17134 125.244 9.19626L127.713 13.9439H125.55L123.388 9.81308C123.235 9.83801 123.082 9.8567 122.929 9.86916C122.776 9.88162 122.61 9.88785 122.431 9.88785H119.924V13.9439H117.877V0.205608H122.431C123.005 0.205608 123.541 0.280374 124.039 0.429907C124.549 0.566979 125.014 0.760125 125.435 1.00935C126.469 1.64486 127.164 2.53583 127.521 3.68224C127.534 3.74455 127.547 3.80062 127.559 3.85047C127.572 3.90031 127.591 3.95639 127.617 4.01869V4.11215C127.642 4.17446 127.655 4.24299 127.655 4.31776C127.668 4.39252 127.681 4.46729 127.693 4.54206V4.56075C127.706 4.63551 127.713 4.71028 127.713 4.78505C127.713 4.85981 127.713 4.94081 127.713 5.02804V5.08411C127.713 5.15888 127.713 5.23365 127.713 5.30841C127.713 5.38318 127.706 5.45794 127.693 5.53271V5.57009C127.681 5.64486 127.668 5.71963 127.655 5.79439C127.655 5.8567 127.642 5.92523 127.617 6V6.07477C127.566 6.21184 127.534 6.33022 127.521 6.42991ZM122.68 8.13084C123.101 8.13084 123.484 8.04361 123.828 7.86916C124.185 7.6947 124.491 7.46417 124.747 7.17757C125.002 6.89097 125.206 6.56698 125.359 6.20561C125.512 5.83178 125.588 5.44548 125.588 5.04673C125.588 4.66044 125.512 4.28037 125.359 3.90654C125.206 3.53271 125.002 3.20872 124.747 2.93458C124.491 2.64798 124.185 2.41745 123.828 2.24299C123.484 2.06854 123.101 1.98131 122.68 1.98131H119.944V8.13084H122.68Z" fill="white"/>
<path d="M132.762 8.6729V11.9252H139V13.8879H130.734V0.242991H138.866V2.14953H132.762V6.80374H138.254V8.6729H132.762Z" fill="white"/>
</svg>
